<svg xmlns="http://www.w3.org/2000/svg" xmlns:xlink="http://www.w3.org/1999/xlink" width="500" zoomAndPan="magnify" viewBox="0 0 375 374.999991" height="500" preserveAspectRatio="xMidYMid meet" version="1.0"><defs><g/><clipPath id="48312bdd4d"><path d="M 86 92 L 289 92 L 289 251 L 86 251 Z M 86 92 " clip-rule="nonzero"/></clipPath><clipPath id="7334bf4ebe"><path d="M 53.457031 171.542969 L 187.628906 37.367188 L 321.800781 171.542969 L 187.628906 305.714844 Z M 53.457031 171.542969 " clip-rule="nonzero"/></clipPath><clipPath id="0a08261844"><path d="M 53.457031 171.542969 L 187.628906 37.367188 L 321.800781 171.542969 L 187.628906 305.714844 Z M 53.457031 171.542969 " clip-rule="nonzero"/></clipPath></defs><g clip-path="url(#48312bdd4d)"><g clip-path="url(#7334bf4ebe)"><g clip-path="url(#0a08261844)"><path fill="#ffffff" d="M 109.304688 115.691406 C 78.460938 146.539062 78.460938 196.546875 109.304688 227.394531 C 140.152344 258.238281 190.160156 258.238281 221.007812 227.394531 C 251.851562 196.546875 251.851562 146.539062 221.007812 115.691406 C 190.160156 84.847656 140.152344 84.847656 109.304688 115.691406 Z M 142.816406 149.203125 C 155.152344 136.863281 175.160156 136.863281 187.496094 149.203125 C 199.832031 161.539062 199.832031 181.546875 187.496094 193.882812 C 175.160156 206.21875 155.152344 206.21875 142.816406 193.882812 C 130.480469 181.546875 130.480469 161.539062 142.816406 149.203125 Z M 217.625 92.960938 C 222.617188 96.300781 227.394531 100.132812 231.804688 104.523438 C 268.824219 141.328125 268.976562 201.179688 232.175781 238.191406 C 227.652344 242.738281 222.78125 246.710938 217.648438 250.148438 C 235.257812 248.410156 252.390625 240.765625 265.839844 227.238281 C 296.597656 196.304688 296.464844 146.300781 265.535156 115.539062 C 252.113281 102.195312 235.09375 94.679688 217.625 92.960938 Z M 159.570312 165.957031 C 159.203125 166.324219 158.878906 166.722656 158.589844 167.152344 C 158.300781 167.585938 158.058594 168.039062 157.859375 168.519531 C 157.660156 169 157.511719 169.492188 157.410156 170 C 157.308594 170.511719 157.257812 171.023438 157.257812 171.542969 C 157.257812 172.0625 157.308594 172.574219 157.410156 173.082031 C 157.511719 173.59375 157.660156 174.085938 157.859375 174.566406 C 158.058594 175.042969 158.300781 175.5 158.589844 175.929688 C 158.878906 176.363281 159.203125 176.761719 159.570312 177.128906 C 159.9375 177.492188 160.335938 177.820312 160.769531 178.109375 C 161.199219 178.398438 161.65625 178.640625 162.132812 178.839844 C 162.613281 179.039062 163.105469 179.1875 163.617188 179.289062 C 164.125 179.390625 164.636719 179.441406 165.15625 179.441406 C 165.675781 179.441406 166.1875 179.390625 166.699219 179.289062 C 167.207031 179.1875 167.699219 179.039062 168.179688 178.839844 C 168.65625 178.640625 169.113281 178.398438 169.542969 178.109375 C 169.976562 177.820312 170.375 177.492188 170.742188 177.128906 C 171.109375 176.761719 171.4375 176.363281 171.722656 175.929688 C 172.011719 175.5 172.253906 175.042969 172.453125 174.566406 C 172.652344 174.085938 172.800781 173.59375 172.902344 173.082031 C 173.003906 172.574219 173.054688 172.0625 173.054688 171.542969 C 173.054688 171.023438 173.003906 170.511719 172.902344 170 C 172.800781 169.492188 172.652344 169 172.453125 168.519531 C 172.253906 168.039062 172.011719 167.585938 171.722656 167.152344 C 171.4375 166.722656 171.109375 166.324219 170.742188 165.957031 C 170.375 165.589844 169.976562 165.261719 169.542969 164.976562 C 169.113281 164.6875 168.65625 164.445312 168.179688 164.246094 C 167.699219 164.046875 167.207031 163.898438 166.699219 163.796875 C 166.1875 163.695312 165.675781 163.644531 165.15625 163.644531 C 164.636719 163.644531 164.125 163.695312 163.617188 163.796875 C 163.105469 163.898438 162.613281 164.046875 162.132812 164.246094 C 161.65625 164.445312 161.199219 164.6875 160.769531 164.976562 C 160.335938 165.261719 159.9375 165.589844 159.570312 165.957031 Z M 159.570312 165.957031 " fill-opacity="1" fill-rule="nonzero"/></g></g></g><g fill="#ffffff" fill-opacity="1"><g transform="translate(40.552512, 316.141669)"><g><path d="M 36.503906 -39.734375 L 15.769531 -39.734375 C 13.648438 -39.734375 11.816406 -39.445312 10.320312 -38.914062 C 8.824219 -38.335938 7.523438 -37.421875 6.605469 -36.214844 C 5.640625 -34.960938 4.917969 -33.417969 4.484375 -31.488281 C 4.050781 -29.609375 3.859375 -27.292969 3.859375 -24.640625 L 3.859375 -15.09375 C 3.859375 -12.394531 4.050781 -10.078125 4.484375 -8.148438 C 4.917969 -6.269531 5.640625 -4.675781 6.605469 -3.421875 C 7.570312 -2.21875 8.824219 -1.300781 10.320312 -0.773438 C 11.816406 -0.242188 13.648438 0.046875 15.769531 0.046875 L 32.261719 0.046875 C 34.046875 0.046875 35.445312 -0.675781 36.40625 -2.074219 C 37.324219 -3.421875 37.804688 -5.691406 37.804688 -8.921875 L 37.804688 -21.84375 C 37.804688 -23.675781 36.746094 -23.964844 36.117188 -23.964844 L 19.046875 -23.964844 C 18.664062 -23.964844 17.699219 -23.773438 17.699219 -22.230469 L 17.699219 -18.566406 C 17.699219 -16.972656 18.664062 -16.828125 19.046875 -16.828125 L 31.054688 -16.828125 C 31.054688 -16.828125 31.105469 -10.078125 31.105469 -10.078125 C 31.105469 -8.582031 30.863281 -7.957031 30.667969 -7.667969 C 30.429688 -7.28125 30.042969 -7.136719 29.511719 -7.136719 L 16.011719 -7.136719 C 14.996094 -7.136719 14.128906 -7.234375 13.503906 -7.472656 C 12.875 -7.667969 12.441406 -8.003906 12.054688 -8.535156 C 11.71875 -9.019531 11.429688 -9.742188 11.285156 -10.65625 C 11.089844 -11.621094 10.996094 -12.828125 10.996094 -14.273438 L 10.996094 -25.460938 C 10.996094 -26.910156 11.089844 -28.113281 11.285156 -29.078125 C 11.429688 -29.945312 11.71875 -30.667969 12.054688 -31.199219 C 12.441406 -31.683594 12.875 -32.019531 13.503906 -32.261719 C 14.128906 -32.453125 14.996094 -32.597656 16.011719 -32.597656 L 36.503906 -32.597656 C 36.890625 -32.597656 37.855469 -32.742188 37.855469 -34.285156 L 37.855469 -38.046875 C 37.855469 -39.542969 36.890625 -39.734375 36.503906 -39.734375 Z M 36.503906 -39.734375 "/></g></g></g><g fill="#ffffff" fill-opacity="1"><g transform="translate(84.666134, 316.141669)"><g><path d="M 32.839844 -8.632812 L 15.867188 -8.632812 C 14.851562 -8.632812 14.03125 -8.777344 13.359375 -8.96875 C 12.730469 -9.210938 12.296875 -9.546875 11.910156 -10.03125 C 11.523438 -10.5625 11.234375 -11.285156 11.089844 -12.199219 C 11.042969 -12.441406 11.042969 -12.777344 10.996094 -13.019531 C 10.996094 -13.019531 11.042969 -16.492188 11.089844 -16.492188 L 32.648438 -16.492188 C 33.03125 -16.492188 33.996094 -16.683594 33.996094 -18.179688 L 33.996094 -21.988281 C 33.996094 -23.484375 33.03125 -23.628906 32.648438 -23.628906 L 7.765625 -23.582031 C 6.367188 -23.484375 5.160156 -22.761719 4.484375 -21.554688 C 4.242188 -21.167969 4.050781 -20.785156 3.953125 -20.351562 L 3.859375 -14.273438 L 3.859375 -14.03125 C 3.90625 -11.765625 4.148438 -9.835938 4.484375 -8.246094 C 4.917969 -6.316406 5.640625 -4.726562 6.558594 -3.519531 C 7.523438 -2.265625 8.777344 -1.398438 10.320312 -0.867188 C 11.816406 -0.289062 13.597656 -0.046875 15.71875 -0.046875 L 32.839844 -0.046875 C 33.273438 -0.046875 34.238281 -0.191406 34.238281 -1.6875 L 34.238281 -6.992188 C 34.238281 -8.488281 33.273438 -8.632812 32.839844 -8.632812 Z M 32.886719 -39.832031 L 5.160156 -39.832031 C 4.773438 -39.832031 3.859375 -39.640625 3.859375 -38.097656 L 3.859375 -34.335938 C 3.859375 -32.839844 4.773438 -32.695312 5.160156 -32.695312 L 32.886719 -32.648438 C 33.273438 -32.648438 34.238281 -32.839844 34.238281 -34.335938 L 34.238281 -38.144531 C 34.238281 -39.640625 33.273438 -39.832031 32.886719 -39.832031 Z M 32.886719 -39.832031 "/></g></g></g><g fill="#ffffff" fill-opacity="1"><g transform="translate(125.163883, 316.141669)"><g><path d="M 38 -39.734375 L 33.707031 -39.734375 C 33.273438 -39.734375 32.359375 -39.589844 32.359375 -38.046875 L 32.359375 -9.066406 C 32.359375 -9.019531 32.359375 -9.019531 32.359375 -8.96875 L 32.117188 -8.96875 C 32.066406 -8.96875 32.019531 -8.96875 31.972656 -9.113281 L 16.734375 -36.214844 C 16.347656 -36.9375 16.011719 -37.515625 15.671875 -37.953125 C 15.335938 -38.433594 14.996094 -38.820312 14.660156 -39.058594 C 14.273438 -39.351562 13.839844 -39.542969 13.308594 -39.640625 C 12.828125 -39.6875 12.25 -39.734375 11.621094 -39.734375 L 8.003906 -39.734375 C 6.605469 -39.734375 5.546875 -39.253906 4.871094 -38.386719 C 4.195312 -37.46875 3.859375 -35.878906 3.859375 -33.515625 L 3.859375 -1.640625 C 3.859375 -0.144531 4.824219 0.046875 5.257812 0.046875 L 9.546875 0.046875 C 9.980469 0.046875 10.898438 -0.144531 10.898438 -1.640625 L 10.898438 -30.621094 C 10.898438 -30.667969 10.898438 -30.71875 10.898438 -30.71875 L 11.140625 -30.71875 C 11.140625 -30.71875 11.1875 -30.71875 11.285156 -30.574219 L 26.570312 -3.472656 C 26.957031 -2.699219 27.34375 -2.121094 27.679688 -1.6875 C 28.015625 -1.207031 28.355469 -0.867188 28.742188 -0.625 C 29.125 -0.335938 29.558594 -0.191406 30.042969 -0.0976562 C 30.476562 0 31.007812 0.046875 31.683594 0.046875 L 35.203125 0.046875 C 36.601562 0.046875 37.660156 -0.433594 38.335938 -1.351562 C 39.011719 -2.21875 39.351562 -3.808594 39.351562 -6.171875 L 39.351562 -38.046875 C 39.351562 -39.589844 38.386719 -39.734375 38 -39.734375 Z M 38 -39.734375 "/></g></g></g><g fill="#ffffff" fill-opacity="1"><g transform="translate(170.772055, 316.141669)"><g><path d="M 36.746094 -28.210938 C 36.746094 -28.160156 36.746094 -28.113281 36.746094 -28.066406 C 36.746094 -28.015625 36.746094 -27.96875 36.746094 -27.921875 Z M 37.660156 -2.074219 L 29.222656 -16.539062 C 31.585938 -16.828125 33.417969 -17.84375 34.625 -19.480469 C 35.972656 -21.460938 36.699219 -24.304688 36.746094 -28.066406 C 36.699219 -31.828125 35.972656 -34.671875 34.625 -36.648438 C 33.175781 -38.722656 30.765625 -39.734375 27.488281 -39.734375 L 5.257812 -39.734375 C 4.824219 -39.734375 3.859375 -39.589844 3.859375 -38.046875 L 3.859375 -34.238281 C 3.859375 -32.742188 4.824219 -32.597656 5.257812 -32.597656 L 26.234375 -32.597656 C 27.488281 -32.597656 28.308594 -32.261719 28.789062 -31.539062 C 29.320312 -30.8125 29.558594 -29.65625 29.558594 -28.066406 C 29.558594 -26.472656 29.320312 -25.316406 28.789062 -24.59375 C 28.308594 -23.871094 27.488281 -23.53125 26.234375 -23.53125 L 5.257812 -23.53125 C 4.824219 -23.53125 3.859375 -23.386719 3.859375 -21.894531 L 3.859375 -1.640625 C 3.859375 -0.144531 4.824219 0.046875 5.257812 0.046875 L 9.644531 0.046875 C 10.078125 0.046875 10.996094 -0.144531 10.996094 -1.640625 L 10.996094 -16.394531 L 21.167969 -16.394531 L 29.898438 -0.917969 C 30.089844 -0.625 30.234375 -0.386719 30.429688 -0.242188 C 30.667969 -0.046875 31.007812 0.046875 31.441406 0.046875 L 36.746094 0.046875 C 37.324219 0.046875 37.757812 -0.335938 37.855469 -0.917969 C 37.902344 -1.398438 37.855469 -1.785156 37.660156 -2.074219 Z M 37.660156 -2.074219 "/></g></g></g><g fill="#ffffff" fill-opacity="1"><g transform="translate(214.933898, 316.141669)"><g><path d="M 32.839844 -8.632812 L 15.867188 -8.632812 C 14.851562 -8.632812 14.03125 -8.777344 13.359375 -8.96875 C 12.730469 -9.210938 12.296875 -9.546875 11.910156 -10.03125 C 11.523438 -10.5625 11.234375 -11.285156 11.089844 -12.199219 C 11.042969 -12.441406 11.042969 -12.777344 10.996094 -13.019531 C 10.996094 -13.019531 11.042969 -16.492188 11.089844 -16.492188 L 32.648438 -16.492188 C 33.03125 -16.492188 33.996094 -16.683594 33.996094 -18.179688 L 33.996094 -21.988281 C 33.996094 -23.484375 33.03125 -23.628906 32.648438 -23.628906 L 7.765625 -23.582031 C 6.367188 -23.484375 5.160156 -22.761719 4.484375 -21.554688 C 4.242188 -21.167969 4.050781 -20.785156 3.953125 -20.351562 L 3.859375 -14.273438 L 3.859375 -14.03125 C 3.90625 -11.765625 4.148438 -9.835938 4.484375 -8.246094 C 4.917969 -6.316406 5.640625 -4.726562 6.558594 -3.519531 C 7.523438 -2.265625 8.777344 -1.398438 10.320312 -0.867188 C 11.816406 -0.289062 13.597656 -0.046875 15.71875 -0.046875 L 32.839844 -0.046875 C 33.273438 -0.046875 34.238281 -0.191406 34.238281 -1.6875 L 34.238281 -6.992188 C 34.238281 -8.488281 33.273438 -8.632812 32.839844 -8.632812 Z M 32.886719 -39.832031 L 5.160156 -39.832031 C 4.773438 -39.832031 3.859375 -39.640625 3.859375 -38.097656 L 3.859375 -34.335938 C 3.859375 -32.839844 4.773438 -32.695312 5.160156 -32.695312 L 32.886719 -32.648438 C 33.273438 -32.648438 34.238281 -32.839844 34.238281 -34.335938 L 34.238281 -38.144531 C 34.238281 -39.640625 33.273438 -39.832031 32.886719 -39.832031 Z M 32.886719 -39.832031 "/></g></g></g><g fill="#ffffff" fill-opacity="1"><g transform="translate(255.431647, 316.141669)"><g><path d="M 5.0625 -18.515625 L 19.867188 -18.515625 C 20.640625 -18.515625 21.074219 -19 21.074219 -19.820312 L 21.074219 -22.617188 C 21.074219 -23.4375 20.640625 -23.917969 19.867188 -23.917969 L 5.0625 -23.917969 C 4.339844 -23.917969 3.859375 -23.4375 3.859375 -22.617188 L 3.859375 -19.820312 C 3.859375 -19 4.339844 -18.515625 5.0625 -18.515625 Z M 5.0625 -18.515625 "/></g></g></g><g fill="#ffffff" fill-opacity="1"><g transform="translate(282.767618, 316.141669)"><g><path d="M 44.027344 -7.136719 L 38.53125 -7.136719 C 38.625 -7.472656 38.722656 -7.859375 38.820312 -8.199219 C 39.207031 -10.078125 39.398438 -12.394531 39.398438 -15.09375 L 39.398438 -24.640625 C 39.398438 -27.292969 39.207031 -29.609375 38.820312 -31.488281 C 38.386719 -33.417969 37.660156 -35.007812 36.746094 -36.214844 C 35.78125 -37.421875 34.527344 -38.335938 32.984375 -38.914062 C 31.488281 -39.445312 29.65625 -39.734375 27.535156 -39.734375 L 15.769531 -39.734375 C 13.648438 -39.734375 11.816406 -39.445312 10.320312 -38.914062 C 8.824219 -38.335938 7.570312 -37.421875 6.605469 -36.214844 C 5.640625 -35.007812 4.96875 -33.417969 4.53125 -31.488281 C 4.097656 -29.609375 3.859375 -27.34375 3.859375 -24.640625 L 3.859375 -15.09375 C 3.859375 -12.394531 4.097656 -10.078125 4.53125 -8.199219 C 4.96875 -6.269531 5.640625 -4.675781 6.605469 -3.472656 C 7.570312 -2.21875 8.824219 -1.300781 10.367188 -0.773438 C 11.816406 -0.242188 13.648438 0.046875 15.769531 0.046875 L 44.027344 0.046875 C 44.460938 0.046875 45.378906 -0.144531 45.378906 -1.640625 L 45.378906 -5.449219 C 45.378906 -6.945312 44.460938 -7.136719 44.027344 -7.136719 Z M 32.261719 -25.460938 L 32.261719 -14.226562 C 32.261719 -12.828125 32.164062 -11.621094 32.019531 -10.65625 C 31.828125 -9.789062 31.585938 -9.019531 31.199219 -8.535156 C 30.863281 -8.003906 30.378906 -7.667969 29.753906 -7.472656 C 29.125 -7.234375 28.308594 -7.136719 27.292969 -7.136719 L 16.011719 -7.136719 C 14.996094 -7.136719 14.175781 -7.234375 13.503906 -7.472656 C 12.921875 -7.667969 12.441406 -8.003906 12.105469 -8.535156 C 11.71875 -9.019531 11.429688 -9.789062 11.285156 -10.65625 C 11.089844 -11.621094 11.042969 -12.828125 11.042969 -14.226562 L 11.042969 -25.460938 C 11.042969 -26.859375 11.089844 -28.066406 11.285156 -29.03125 C 11.429688 -29.945312 11.71875 -30.667969 12.105469 -31.199219 C 12.441406 -31.683594 12.921875 -32.019531 13.503906 -32.261719 C 14.175781 -32.453125 14.996094 -32.597656 16.011719 -32.597656 L 27.292969 -32.597656 C 28.308594 -32.597656 29.125 -32.453125 29.753906 -32.261719 C 30.378906 -32.019531 30.863281 -31.683594 31.199219 -31.199219 C 31.585938 -30.667969 31.828125 -29.945312 32.019531 -29.03125 C 32.164062 -28.066406 32.261719 -26.859375 32.261719 -25.460938 Z M 32.261719 -25.460938 "/></g></g></g></svg>